# xmcd
#
# Track frame offsets:
#	150
#	16902
#	35070
#	52625
#	70412
#	88367
#	106405
#	125467
#	140012
#	155242
#	173575
#	193020
#	206462
#	225587
#	242235
#	261975
#	277767
#	295950
#
# Disc length: 4162 seconds
#
# Revision: 1
# Processed by: cddbd v1.5.2PL0 Copyright (c) Steve Scherf et al.
# Submitted via: audiograbber 1.83.01
#
DISCID=09104012
DTITLE=Brent Lamb - Reflections of a simple man
DYEAR=2001
DGENRE=Christian
TTITLE0=Army of the Lord
TTITLE1=We're a Family
TTITLE2=Worth it All
TTITLE3=One About Heaven
TTITLE4=Longing To Live Like Him
TTITLE5=What Children Believe
TTITLE6=More than Enough
TTITLE7=Tabernacle
TTITLE8=Only Love Knows
TTITLE9=Quiet Please
TTITLE10=Common Ground
TTITLE11=P-31
TTITLE12=To Be Like Jesus
TTITLE13=My Turn Now
TTITLE14=Outside These Walls
TTITLE15=When It Hurts The Most
TTITLE16=Household of Faith
TTITLE17=Simple Life
EXTD=
EXTT0=
EXTT1=
EXTT2=
EXTT3=
EXTT4=
EXTT5=
EXTT6=
EXTT7=
EXTT8=
EXTT9=
EXTT10=
EXTT11=
EXTT12=
EXTT13=
EXTT14=
EXTT15=
EXTT16=
EXTT17=
PLAYORDER=
